<svg
  width="290"
  height="290"
  viewBox="0 0 290 290"
  fill="none"
  xmlns="http://www.w3.org/2000/svg"
>
  <path
    d="M278.622 88.6951C264.659 55.5591 238.882 28.793 206.295 13.5928C173.709 -1.60747 136.636 -4.15754 102.275 6.4376C67.9138 17.0327 38.715 40.0172 20.3467 70.9293C1.97837 101.841 -4.24905 138.476 2.87331 173.721C9.99566 208.966 29.9597 240.308 58.8899 261.662C87.8202 283.016 123.653 292.859 159.432 289.28C195.211 285.701 228.384 268.956 252.511 242.294C276.639 215.633 290 180.958 290 145.001C290.027 125.659 286.157 106.509 278.622 88.6951ZM250.793 205.877H158.627L204.642 126.009L250.793 205.877ZM137.711 103.117H99.2465L137.711 36.468V103.117ZM152.98 118.375H191.465L152.99 185.023L152.98 118.375ZM137.711 185.023L99.2465 118.375H137.711V185.023ZM86.0276 126.009L132.137 205.877H39.9184L86.0276 126.009ZM152.959 103.117V36.468L191.465 103.117H152.959ZM131.687 16.3155L79.3973 106.902L27.1074 197.479C18.8226 178.839 15.0633 158.505 16.1364 138.135C17.2095 117.766 23.0845 97.9385 33.2819 80.2726C43.4792 62.6067 57.7098 47.6027 74.8119 36.4856C91.914 25.3685 111.403 18.4535 131.687 16.305V16.3155ZM145.283 274.355C124.887 274.359 104.779 269.538 86.6036 260.284C68.4277 251.031 52.699 237.609 40.7028 221.114H249.904C237.91 237.604 222.187 251.023 204.017 260.276C185.847 269.529 165.746 274.354 145.356 274.355H145.283ZM263.52 197.489L211.23 106.913L158.941 16.3259C179.223 18.4787 198.709 25.3965 215.808 36.5146C232.908 47.6327 247.137 62.6362 257.333 80.3008C267.53 97.9654 273.405 117.79 274.481 138.158C275.556 158.526 271.8 178.86 263.52 197.5V197.489Z"
    fill="#f4f4f8"
  />
</svg>
