<svg width="104" height="76" viewBox="0 0 104 76" fill="none" xmlns="http://www.w3.org/2000/svg">
  <style>
    path {
        fill: #222223;
    }
    @media (prefers-color-scheme: dark) {
        path {
            fill: #f4f4f8;
        }
    }
</style>
  <path d="M0.386993 75.79V0.674988H4.12199V75.79H0.386993Z" fill-opacity="0.87" />
  <path d="M17.3675 75.79V0.674988H21.1025V75.79H17.3675Z" fill-opacity="0.87" />
  <path d="M68.9589 15.864C68.0183 14.8127 66.9669 13.8997 65.8049 13.125C64.6429 12.295 63.3979 11.631 62.0699 11.133C60.7419 10.5797 59.3033 10.1647 57.7539 9.88799C56.2046 9.61132 54.5446 9.47299 52.7739 9.47299C47.0193 9.47299 42.8139 10.5797 40.1579 12.793C37.5573 14.951 36.2569 17.8837 36.2569 21.591C36.2569 24.081 36.8379 26.073 37.9999 27.567C39.2173 29.0057 41.0986 30.1677 43.6439 31.053C46.1893 31.9383 49.4816 32.796 53.5209 33.626C57.7816 34.5113 61.4613 35.5627 64.5599 36.78C67.6586 37.942 70.0379 39.5467 71.6979 41.594C73.4133 43.6413 74.2709 46.408 74.2709 49.894C74.2709 52.4947 73.7729 54.791 72.7769 56.783C71.7809 58.7197 70.3423 60.3243 68.4609 61.597C66.5796 62.8697 64.3386 63.838 61.7379 64.502C59.1926 65.166 56.3429 65.498 53.1889 65.498C50.1456 65.498 47.2406 65.166 44.4739 64.502C41.7073 63.838 39.1066 62.8697 36.6719 61.597C34.2373 60.3243 31.9686 58.692 29.8659 56.7L32.1069 53.297C33.3243 54.625 34.6799 55.8147 36.1739 56.866C37.7233 57.862 39.3833 58.7197 41.1539 59.439C42.9799 60.1583 44.9166 60.7393 46.9639 61.182C49.0113 61.5693 51.1416 61.763 53.3549 61.763C58.5009 61.763 62.5126 60.8223 65.3899 58.941C68.3226 57.0043 69.7889 54.1547 69.7889 50.392C69.7889 47.7913 69.1249 45.6887 67.7969 44.084C66.4689 42.4793 64.4216 41.179 61.6549 40.183C58.8883 39.1317 55.4299 38.1633 51.2799 37.278C47.1299 36.3927 43.5886 35.3967 40.6559 34.29C37.7786 33.1833 35.5929 31.6893 34.0989 29.808C32.6603 27.9267 31.9409 25.3813 31.9409 22.172C31.9409 18.6307 32.7986 15.6427 34.5139 13.208C36.2846 10.718 38.7469 8.83665 41.9009 7.56399C45.0549 6.29132 48.6793 5.65499 52.7739 5.65499C55.3193 5.65499 57.6709 5.90399 59.8289 6.40199C62.0423 6.89999 64.0619 7.67466 65.8879 8.72599C67.7693 9.72199 69.5123 10.9947 71.1169 12.544L68.9589 15.864Z" fill-opacity="0.87" />
  <path d="M83.1018 75.79V0.674988H86.8368V75.79H83.1018Z" fill-opacity="0.87" />
  <path d="M100.082 75.79V0.674988H103.817V75.79H100.082Z" fill-opacity="0.87" />
</svg>