<svg
  width="133"
  height="77"
  viewBox="0 0 133 77"
  fill="none"
  xmlns="http://www.w3.org/2000/svg"
>
  <path
    d="M0.320007 60.249V58.174L1.98001 58.008C3.91667 57.7867 5.38301 57.51 6.37901 57.178C7.43034 56.7907 8.14967 56.016 8.53701 54.854C8.92434 53.6367 9.11801 51.6723 9.11801 48.961V12.109C9.11801 9.34232 8.92434 7.37799 8.53701 6.21599C8.14967 5.05399 7.43034 4.30699 6.37901 3.97499C5.38301 3.58765 3.91667 3.28332 1.98001 3.06199L0.320007 2.89599V0.820984L12.604 1.06998H12.687L24.971 0.820984V2.89599L23.311 3.06199C21.4297 3.28332 19.9633 3.58765 18.912 3.97499C17.8607 4.30699 17.1413 5.05399 16.754 6.21599C16.3667 7.37799 16.173 9.34232 16.173 12.109V28.128H47.796V12.109C47.796 9.34232 47.6023 7.37799 47.215 6.21599C46.8277 5.05399 46.1083 4.30699 45.057 3.97499C44.061 3.58765 42.5947 3.28332 40.658 3.06199L38.998 2.89599V0.820984L51.282 1.06998H51.365L63.649 0.820984V2.89599L61.989 3.06199C60.1077 3.28332 58.6413 3.58765 57.59 3.97499C56.5387 4.30699 55.8193 5.05399 55.432 6.21599C55.0447 7.37799 54.851 9.34232 54.851 12.109V48.961C54.851 51.6723 55.0447 53.6367 55.432 54.854C55.8193 56.016 56.5387 56.7907 57.59 57.178C58.6413 57.51 60.1077 57.7867 61.989 58.008L63.649 58.174V60.249L51.365 60H51.282L38.998 60.249V58.174L40.658 58.008C42.5947 57.7867 44.061 57.51 45.057 57.178C46.1083 56.7907 46.8277 56.016 47.215 54.854C47.6023 53.6367 47.796 51.6723 47.796 48.961V30.784H16.173V48.961C16.173 51.6723 16.3667 53.6367 16.754 54.854C17.1413 56.016 17.8607 56.7907 18.912 57.178C19.9633 57.51 21.4297 57.7867 23.311 58.008L24.971 58.174V60.249L12.687 60H12.604L0.320007 60.249Z"
    fill="#F4F4F8"
  />
  <path
    d="M72.1872 60.332V58.257L73.8472 58.091C75.7839 57.8697 77.2502 57.593 78.2462 57.261C79.2975 56.929 80.0169 56.1543 80.4042 54.937C80.7915 53.7197 80.9852 51.7277 80.9852 48.961V6.13298C80.4872 5.52432 79.7402 4.86032 78.7442 4.14099C77.7482 3.36632 76.2819 2.97898 74.3452 2.97898H71.8552V0.820984L87.9572 1.06998C88.9532 2.45332 90.2812 4.27932 91.9412 6.54799C93.6565 8.81665 95.5379 11.3343 97.5852 14.101C99.6879 16.8677 101.846 19.7173 104.059 22.65C106.273 25.5273 108.403 28.3217 110.45 31.033C112.553 33.7443 114.434 36.179 116.094 38.337C117.754 40.495 119.055 42.2103 119.995 43.483V12.109C119.995 9.34232 119.802 7.37799 119.414 6.21599C119.027 4.99865 118.308 4.22399 117.256 3.89198C116.26 3.50465 114.794 3.22799 112.857 3.06199L111.197 2.89599V0.820984L121.987 1.06998L132.113 0.820984V2.89599L130.453 3.06199C128.572 3.28332 127.106 3.58765 126.054 3.97499C125.003 4.30699 124.284 5.05399 123.896 6.21599C123.509 7.37799 123.315 9.34232 123.315 12.109V60H120.825C119.94 58.174 118.612 55.933 116.841 53.277C115.126 50.5657 113.134 47.6053 110.865 44.396C108.597 41.1867 106.217 37.922 103.727 34.602C101.293 31.2267 98.8579 27.962 96.4232 24.808C93.9885 21.654 91.7199 18.7767 89.6172 16.176C87.5145 13.5753 85.7439 11.4173 84.3052 9.70199V48.961C84.3052 51.7277 84.4989 53.7197 84.8862 54.937C85.2735 56.1543 85.9929 56.929 87.0442 57.261C88.0955 57.593 89.5619 57.8697 91.4432 58.091L93.1032 58.257V60.332L82.4792 60L72.1872 60.332Z"
    fill="#F4F4F8"
  />
  <line
    x1="1.74846e-07"
    y1="74.332"
    x2="132"
    y2="74.332"
    stroke="#F4F4F8"
    stroke-width="4"
  />
</svg>
